<svg width="36" height="36" viewBox="0 0 36 36" fill="none" xmlns="http://www.w3.org/2000/svg">
<path id="Vector" d="M17.9998 11.9982C14.542 11.9982 11.7389 14.6854 11.7389 18.0002C11.7389 21.3151 14.542 24.0022 17.9998 24.0022C21.4576 24.0022 24.2606 21.3151 24.2606 18.0002C24.2606 14.6854 21.4576 11.9982 17.9998 11.9982ZM14.8693 18.0002C14.8693 16.3428 16.2709 14.9992 17.9998 14.9992C19.7286 14.9992 21.1302 16.3428 21.1302 18.0002C21.1302 19.6576 19.7286 21.0012 17.9998 21.0012C16.2709 21.0012 14.8693 19.6576 14.8693 18.0002ZM26.1954 7.19157C24.9902 7.4014 23.8348 6.63878 23.615 5.48822L22.8019 1.23945C22.7211 0.817235 22.3813 0.483343 21.9415 0.394033C20.6551 0.132825 19.3362 0 18 0C16.6629 0 15.3432 0.133005 14.056 0.394513C13.6161 0.483913 13.2763 0.817986 13.1957 1.24038L12.3849 5.4884C12.3633 5.60136 12.3321 5.71261 12.2915 5.82091C11.8792 6.92226 10.6096 7.49602 9.45584 7.10244L5.20011 5.64995C4.77713 5.50557 4.30469 5.61898 4.00354 5.93714C2.22276 7.81866 0.873143 10.0388 0.0538472 12.4574C-0.0843611 12.8655 0.0489012 13.3128 0.39137 13.5903L3.84085 16.3859C3.93263 16.4603 4.01797 16.5417 4.09595 16.6294C4.88901 17.5209 4.77478 18.8573 3.84082 19.6143L0.39137 22.4098C0.0489012 22.6873 -0.0843611 23.1346 0.0538472 23.5426C0.873143 25.9613 2.22276 28.1815 4.00354 30.0631C4.30469 30.3812 4.77713 30.4946 5.20011 30.3503L9.45602 28.8975C9.56931 28.8591 9.68586 28.8291 9.80438 28.8084C11.0097 28.5986 12.1651 29.3612 12.3849 30.5117L13.1957 34.7597C13.2763 35.1822 13.6161 35.5162 14.056 35.6057C15.3432 35.8671 16.6629 36 18 36C19.3362 36 20.6551 35.8674 21.9415 35.606C22.3813 35.5168 22.7211 35.1828 22.8019 34.7606L23.6149 30.512C23.6366 30.3986 23.6679 30.2876 23.7084 30.1792C24.1207 29.0779 25.3903 28.5041 26.5441 28.8975L30.7997 30.3503C31.2229 30.4946 31.6953 30.3812 31.9964 30.0631C33.7773 28.1815 35.1268 25.9613 35.9461 23.5426C36.0844 23.1346 35.9511 22.6873 35.6086 22.4098L32.1592 19.6142C32.0672 19.5398 31.982 19.4584 31.9041 19.3707C31.1108 18.4792 31.2251 17.1428 32.1592 16.3858L35.6086 13.5903C35.9511 13.3128 36.0844 12.8655 35.9461 12.4574C35.1268 10.0388 33.7773 7.81866 31.9964 5.93714C31.6953 5.61898 31.2229 5.50557 30.7997 5.64995L26.5438 7.1025C26.4305 7.14112 26.3141 7.17095 26.1954 7.19157ZM5.47396 8.92894L8.40589 9.9296C11.1762 10.8746 14.2394 9.50181 15.238 6.83466C15.3361 6.57258 15.4119 6.30258 15.4642 6.02852L16.0196 3.11859C16.6717 3.04054 17.3327 3.00101 18 3.00101C18.6667 3.00101 19.3272 3.04048 19.9788 3.11841L20.536 6.02969C21.0694 8.81953 23.8622 10.6478 26.7548 10.1443C27.0397 10.0947 27.3208 10.0228 27.5938 9.92969L30.5261 8.92894C31.3243 9.93002 31.988 11.0222 32.4998 12.1802L30.1379 14.0941C27.8815 15.9231 27.6025 19.1601 29.5221 21.318C29.7103 21.5297 29.9166 21.7265 30.1382 21.906L32.4998 23.8199C31.988 24.9779 31.3243 26.0699 30.5261 27.0711L27.5935 26.0702C24.8234 25.1252 21.7605 26.4982 20.762 29.1655C20.6638 29.4275 20.5881 29.6976 20.5357 29.9716L19.9788 32.8816C19.3272 32.9597 18.6667 32.999 18 32.999C17.3327 32.999 16.6717 32.9597 16.0196 32.8813L15.4641 29.9713C14.931 27.1809 12.138 25.3521 9.2451 25.8557C8.96013 25.9055 8.67911 25.9772 8.40608 26.0705L5.47396 27.0711C4.67552 26.0699 4.01199 24.9779 3.50026 23.8199L5.86195 21.906C8.11855 20.077 8.3975 16.84 6.47789 14.6821C6.28957 14.4704 6.08343 14.2736 5.86185 14.094L3.50026 12.1802C4.01199 11.0222 4.67552 9.93002 5.47396 8.92894Z" fill="#212121" fill-opacity="0.65"/>
</svg>
