<svg width="45" height="36" viewBox="0 0 45 36"  xmlns="http://www.w3.org/2000/svg">
<g id="Data Histogram / undefined">
<path id="Vector" d="M15.9375 7.84571C15.9375 5.98175 17.8263 4.47071 20.1562 4.47071H24.8438C27.1736 4.47071 29.0625 5.98175 29.0625 7.84571V10.5007H35.1562C37.4861 10.5007 39.375 12.0117 39.375 13.8757V30.3757C39.375 30.997 38.7454 31.5007 37.9688 31.5007H7.03125C6.25461 31.5007 5.625 30.997 5.625 30.3757V18.3757C5.625 16.5117 7.5138 15.0007 9.84375 15.0007H15.9375V7.84571ZM18.75 29.2507H26.25V7.84571C26.25 7.22439 25.6204 6.72071 24.8438 6.72071H20.1562C19.3796 6.72071 18.75 7.22438 18.75 7.84571V29.2507ZM15.9375 17.2507H9.84375C9.06711 17.2507 8.4375 17.7544 8.4375 18.3757V29.2507H15.9375V17.2507ZM29.0625 29.2507H36.5625V13.8757C36.5625 13.2544 35.9329 12.7507 35.1562 12.7507H29.0625V29.2507Z" fill="#212121" fill-opacity="0.6"/>
</g>
</svg>
