<svg width="36" height="47" viewBox="0 0 36 47" fill="none" xmlns="http://www.w3.org/2000/svg">
<g id="Standard Collection 15">
<path id="Vector" d="M32.5935 47C32.0811 46.9996 31.5755 46.8806 31.1142 46.6517C30.6528 46.4228 30.2476 46.0898 29.9287 45.6777C28.942 44.5826 21.3159 36.8841 16.6428 32.1904C16.3194 31.87 16.0609 31.4871 15.8821 31.0634C15.7033 30.64 15.6078 30.1843 15.6011 29.7227C15.5944 29.2611 15.6766 28.8026 15.843 28.3737C16.0094 27.9449 16.2568 27.5542 16.5707 27.2239C16.8847 26.8939 17.2591 26.6307 17.6724 26.4499C18.0857 26.269 18.5297 26.1742 18.9789 26.1704C19.4281 26.1666 19.8736 26.2543 20.2896 26.4283C20.7057 26.6024 21.0841 26.8592 21.4032 27.1843C21.4366 27.2178 24.8022 30.5987 28.1426 33.976L29.1893 35.0345V18.5946C29.1893 12.2013 24.1699 6.99994 18 6.99994C11.8301 6.99994 6.81081 12.2013 6.81081 18.5946V43.4998C6.81081 44.428 6.45202 45.3183 5.81339 45.9746C5.17475 46.6309 4.30857 46.9996 3.4054 46.9996C2.50222 46.9996 1.63606 46.6309 0.997419 45.9746C0.358783 45.3183 0 44.428 0 43.4998V18.5946C0 8.34145 8.07474 0 18 0C27.9252 0 36 8.34145 36 18.5946V43.4998C35.9996 44.428 35.6406 45.3183 35.0018 45.9748C34.363 46.6311 33.4968 46.9998 32.5935 47ZM29.4975 44.954L29.4989 44.9572L29.4975 44.954Z" fill="url(#paint0_linear_1_11)"/>
<path id="Vector_2" d="M18.0002 21.9589C20.1496 21.9589 21.892 20.1681 21.892 17.9589C21.892 15.7498 20.1496 13.9589 18.0002 13.9589C15.8507 13.9589 14.1082 15.7498 14.1082 17.9589C14.1082 20.1681 15.8507 21.9589 18.0002 21.9589Z" fill="url(#paint1_linear_1_11)"/>
</g>
<defs>
<linearGradient id="paint0_linear_1_11" x1="18" y1="47.564" x2="18" y2="0.140998" gradientUnits="userSpaceOnUse">
<stop offset="0.9999" stop-color="#941A97"/>
<stop offset="1" stop-color="#12ECA0"/>
</linearGradient>
<linearGradient id="paint1_linear_1_11" x1="18.0002" y1="47.5512" x2="18.0002" y2="0.134793" gradientUnits="userSpaceOnUse">
<stop offset="0.9999" stop-color="#941A97"/>
<stop offset="1" stop-color="#12ECA0"/>
</linearGradient>
</defs>
</svg>
