<svg width="20" height="17" viewBox="0 0 20 17" fill="none" xmlns="http://www.w3.org/2000/svg">
<path id="Vector" d="M6.1213 1.01651C10.0543 0.265412 13.8515 2.84486 14.6026 6.77784C14.9275 8.479 14.6292 10.1547 13.8679 11.5695L19.601 15.4641C19.9436 15.6969 20.0327 16.1632 19.7999 16.5059C19.5884 16.8174 19.1837 16.9193 18.8544 16.7604L18.7582 16.7048L13.025 12.8104C11.9903 14.0395 10.5424 14.9342 8.84125 15.2591C4.90826 16.0102 1.11107 13.4308 0.359971 9.49778C-0.39112 5.5648 2.18832 1.7676 6.1213 1.01651ZM6.40268 2.48988C3.28341 3.08558 1.23765 6.09714 1.83334 9.21641C2.42903 12.3356 5.4406 14.3814 8.55987 13.7857C11.6791 13.1901 13.7249 10.1784 13.1292 7.05922C12.5335 3.93995 9.52191 1.8942 6.40268 2.48988Z" fill="#941A97"/>
</svg>
