<svg width="39" height="39" viewBox="0 0 39 39" fill="none" xmlns="http://www.w3.org/2000/svg">
<g id="Star / undefined">
<path id="Vector" d="M17.7149 4.94442C18.4451 3.4649 20.5549 3.46489 21.2851 4.94442L25.2276 12.9329L34.0434 14.2139C35.6761 14.4511 36.3281 16.4577 35.1466 17.6093L28.7675 23.8275L30.2733 32.6077C30.5523 34.2338 28.8455 35.4739 27.3851 34.7061L19.5 30.5607L11.6149 34.7061C10.1545 35.4739 8.44764 34.2338 8.72658 32.6077L10.2325 23.8275L3.85332 17.6093C2.67185 16.4577 3.3238 14.4511 4.95655 14.2139L13.7724 12.9329L17.7149 4.94442ZM19.5 5.9172L15.5844 13.851C15.2944 14.4385 14.734 14.8458 14.0856 14.94L5.3301 16.2122L11.6656 22.3878C12.1348 22.8451 12.3489 23.5041 12.2381 24.1498L10.7426 32.8699L18.5737 28.7528C19.1536 28.4479 19.8464 28.448 20.4263 28.7528L28.2575 32.8699L26.7618 24.1498C26.6511 23.5041 26.8652 22.8451 27.3343 22.3878L33.6698 16.2122L24.9143 14.94C24.266 14.8458 23.7055 14.4385 23.4155 13.851L19.5 5.9172Z" fill="#212121" fill-opacity="0.6"/>
</g>
</svg>
