<svg width="39" height="32" viewBox="0 0 39 32" fill="none" xmlns="http://www.w3.org/2000/svg">
<path id="Vector" d="M1.625 0C0.727545 0 0 0.651438 0 1.45501C0 2.25859 0.727545 2.91002 1.625 2.91002H37.375C38.2723 2.91002 39 2.25859 39 1.45501C39 0.651438 38.2723 0 37.375 0H1.625ZM7.9299 27.4567L9.34586 26.1902H1.625C0.727545 26.1902 0 26.8418 0 27.6452C0 28.4487 0.727545 29.1002 1.625 29.1002H6.77355C7.00817 28.4999 7.39362 27.9362 7.9299 27.4567ZM16.1635 20.093C14.8096 19.6392 13.7548 18.6674 13.2779 17.4601H1.625C0.727545 17.4601 0 18.1116 0 18.9152C0 19.7187 0.727545 20.3702 1.625 20.3702H15.8536L16.1635 20.093ZM17.5761 11.6401L18.4612 11.5425C19.069 11.332 19.5 10.8036 19.5 10.1851C19.5 9.38151 18.7725 8.73007 17.875 8.73007H1.625C0.727545 8.73007 0 9.38151 0 10.1851C0 10.9887 0.727545 11.6401 1.625 11.6401H17.5761ZM27.625 5.82005C28.4456 5.82005 29.1375 6.36798 29.238 7.09731L29.5315 9.23275C29.8958 11.8834 32.2283 13.9719 35.1887 14.2982L37.5736 14.561C38.388 14.6508 39 15.2703 39 16.0051C39 16.74 38.388 17.3595 37.5736 17.4492L35.1887 17.7121C32.2283 18.0384 29.8958 20.1268 29.5315 22.7776L29.238 24.913C29.1375 25.6423 28.4456 26.1902 27.625 26.1902C26.8044 26.1902 26.1125 25.6423 26.012 24.913L25.7186 22.7776C25.3542 20.1268 23.0218 18.0384 20.0614 17.7121L17.6765 17.4492C16.8619 17.3595 16.25 16.74 16.25 16.0051C16.25 15.2703 16.8619 14.6508 17.6765 14.561L20.0614 14.2982C23.0218 13.9719 25.3542 11.8834 25.7186 9.23275L26.012 7.09731C26.1125 6.36798 26.8044 5.82005 27.625 5.82005ZM27.625 13.0187C26.8031 14.2423 25.6562 15.2692 24.2897 16.0051C25.6563 16.7411 26.8031 17.7679 27.625 18.9915C28.4469 17.7679 29.5939 16.7411 30.9605 16.0051C29.5939 15.2692 28.4469 14.2424 27.625 13.0187ZM22.2747 20.7971C22.909 21.3654 22.9083 22.2867 22.2734 22.8547L12.5234 31.5743C11.8884 32.1424 10.8595 32.1418 10.2253 31.5732C9.59104 31.0046 9.59166 30.0835 10.2266 29.5155L19.9766 20.7956C20.6116 20.2278 21.6405 20.2284 22.2747 20.7971Z" fill="#212121" fill-opacity="0.6"/>
</svg>
