<svg width="39" height="39" viewBox="0 0 39 39" fill="none" xmlns="http://www.w3.org/2000/svg">
<path id="Vector" d="M34.125 1.21875C34.125 0.545659 33.5792 0 32.9063 0H23.1563C22.4833 0 21.9375 0.545659 21.9375 1.21875C21.9375 1.89184 22.4833 2.4375 23.1563 2.4375H29.9639L19.4998 12.9014L15.4868 8.88825C15.2583 8.65966 14.9483 8.53125 14.625 8.53125C14.3018 8.53125 13.9918 8.65966 13.7632 8.88822L0.356978 22.2944C-0.118993 22.7704 -0.118993 23.5421 0.356978 24.0181C0.832924 24.4939 1.60459 24.4939 2.08053 24.0181L14.625 11.4736L18.6379 15.4868C18.8665 15.7153 19.1765 15.8438 19.4998 15.8438C19.823 15.8438 20.133 15.7154 20.3614 15.4868L31.6875 4.16103V10.9688C31.6875 11.6418 32.2333 12.1875 32.9063 12.1875C33.5792 12.1875 34.125 11.6418 34.125 10.9688V1.21875ZM17.0625 24.375C17.0625 21.6825 19.245 19.5 21.9375 19.5H34.125C36.8175 19.5 39 21.6825 39 24.375V34.125C39 36.8175 36.8175 39 34.125 39H21.9375C19.245 39 17.0625 36.8175 17.0625 34.125V24.375ZM32.9063 31.6875H23.1563C22.483 31.6875 21.9375 32.2333 21.9375 32.9062C21.9375 33.5792 22.483 34.125 23.1563 34.125H32.9063C33.5795 34.125 34.125 33.5792 34.125 32.9062C34.125 32.2333 33.5795 31.6875 32.9063 31.6875ZM23.1563 24.375C22.483 24.375 21.9375 24.9208 21.9375 25.5938C21.9375 26.2667 22.483 26.8125 23.1563 26.8125H32.9063C33.5795 26.8125 34.125 26.2667 34.125 25.5938C34.125 24.9208 33.5795 24.375 32.9063 24.375H23.1563Z" fill="#212121" fill-opacity="0.6"/>
</svg>
