<svg width="45" height="36" viewBox="0 0 45 36" fill="none" xmlns="http://www.w3.org/2000/svg">
<path id="Vector" d="M39.9372 0C42.6169 0 44.8103 1.7529 44.9883 3.97119L45 4.26307V24.1617C45 26.4179 42.9182 28.2649 40.2839 28.415L39.9372 28.4248L30.3746 28.4242V33.1572L34.3146 33.158C35.2466 33.158 36.0022 33.7942 36.0022 34.579C36.0022 35.2984 35.3672 35.893 34.5434 35.9871L34.3146 36H10.6881C9.75608 36 9.00053 35.364 9.00053 34.579C9.00053 33.8596 9.63541 33.265 10.4591 33.171L10.6881 33.158L14.6236 33.1572V28.4242L5.0628 28.4248C2.38318 28.4248 0.189799 26.6718 0.0116785 24.4535L0 24.1617V4.26307C0 2.00675 2.08173 0.159836 4.71617 0.00983328L5.0628 0H39.9372ZM26.9971 28.4242H17.9966L17.9988 33.158H26.9994L26.9971 28.4242ZM39.9372 2.84205H5.0628C4.20842 2.84205 3.50235 3.37663 3.39059 4.07024L3.3752 4.26307V24.1617C3.3752 24.8812 4.01007 25.4757 4.8338 25.5697L5.0628 25.5828H39.9372C40.7916 25.5828 41.4977 25.0481 41.6095 24.3544L41.6248 24.1617V4.26307C41.6248 3.54365 40.99 2.94911 40.1663 2.85502L39.9372 2.84205ZM37.1342 5.68409C37.6864 5.68409 38.1459 6.01922 38.2411 6.46114L38.2593 6.63144V21.7936C38.2593 22.2587 37.8612 22.6456 37.3365 22.7258L37.1342 22.7409H16.8734C16.321 22.7409 15.8617 22.4059 15.7664 21.9639L15.7483 21.7936V6.63144C15.7483 6.16637 16.1463 5.77956 16.6711 5.69936L16.8734 5.68409H37.1342ZM12.3716 5.68409C12.924 5.68409 13.3833 6.01922 13.4786 6.46114L13.4967 6.63144V21.7936C13.4967 22.2587 13.0987 22.6456 12.5739 22.7258L12.3716 22.7409H7.8715C7.31919 22.7409 6.85984 22.4059 6.76457 21.9639L6.74644 21.7936V6.63144C6.74644 6.16637 7.14444 5.77956 7.66929 5.69936L7.8715 5.68409H12.3716Z" fill="#212121" fill-opacity="0.6"/>
</svg>
