<svg width="37" height="37" viewBox="0 0 37 37" fill="none" xmlns="http://www.w3.org/2000/svg">
<path id="Vector" d="M16.1875 23.3574C18.4863 23.3574 20.35 25.3182 20.35 27.7369V30.6604L20.3354 30.8714C19.7606 35.0099 16.2273 37 10.2986 37C4.39118 37 0.801605 35.0327 0.0267512 30.9419L0 30.6565V27.7369C0 25.3182 1.86362 23.3574 4.1625 23.3574H16.1875ZM16.1875 26.277H4.1625C3.39621 26.277 2.775 26.9306 2.775 27.7369V30.5016C3.29261 32.8381 5.64367 34.0803 10.2986 34.0803C14.9534 34.0803 17.1987 32.8515 17.575 30.546V27.7369C17.575 26.9306 16.9538 26.277 16.1875 26.277ZM10.175 7.78579C13.751 7.78579 16.65 10.8359 16.65 14.5983C16.65 18.3608 13.751 21.4109 10.175 21.4109C6.59895 21.4109 3.7 18.3608 3.7 14.5983C3.7 10.8359 6.59895 7.78579 10.175 7.78579ZM32.8375 0C35.1363 0 37 1.96077 37 4.3795V11.1921C37 13.6108 35.1363 15.5716 32.8375 15.5716H30.1459L26.1379 19.7397C25.2294 20.6841 23.7651 20.675 22.8675 19.7191C22.4398 19.2636 22.2 18.6493 22.2 18.0097L22.1989 15.5447C20.1182 15.3021 18.5 13.4459 18.5 11.1921V4.3795C18.5 1.96077 20.3637 0 22.6625 0H32.8375ZM10.175 10.7055C8.13155 10.7055 6.475 12.4484 6.475 14.5983C6.475 16.7484 8.13155 18.4912 10.175 18.4912C12.2185 18.4912 13.875 16.7484 13.875 14.5983C13.875 12.4484 12.2185 10.7055 10.175 10.7055ZM32.8375 2.91967H22.6625C21.8962 2.91967 21.275 3.57327 21.275 4.3795V11.1921C21.275 11.9983 21.8962 12.6519 22.6625 12.6519H24.9724L24.9744 16.8444L29.006 12.6519H32.8375C33.6038 12.6519 34.225 11.9983 34.225 11.1921V4.3795C34.225 3.57327 33.6038 2.91967 32.8375 2.91967Z" fill="#212121" fill-opacity="0.6"/>
</svg>
